<?xml version="1.0" encoding="UTF-8"?>
<svg width="24px" height="24px" viewBox="0 0 24 24" version="1.1" xmlns="http://www.w3.org/2000/svg" xmlns:xlink="http://www.w3.org/1999/xlink">
    <!-- Generator: Sketch 53.2 (72643) - https://sketchapp.com -->
    <title>Alert</title>
    <desc>Created with Sketch.</desc>
    <defs>
        <path d="M11.9998503,4.31433835 L2.31403896,19.6502063 L21.6856617,19.6502063 L11.9998503,4.31433835 Z M13.9563446,3.07865776 L23.6421559,18.4145257 C24.3246035,19.4950677 24.0018842,20.924253 22.9213422,21.6067006 C22.5515191,21.8402731 22.1230691,21.9642453 21.6856617,21.9642453 L2.31403896,21.9642453 C1.03603053,21.9642453 2.56909933e-16,20.9282147 0,19.6502063 C0,19.2127989 0.123972195,18.7843489 0.357544698,18.4145257 L10.043356,3.07865776 C10.7258036,1.99811582 12.1549889,1.67539655 13.2355309,2.35784409 C13.5263953,2.54154794 13.7726407,2.78779334 13.9563446,3.07865776 Z M11.9998503,16.1791479 C12.6388545,16.1791479 13.1568698,16.6971631 13.1568698,17.3361674 C13.1568698,17.9751716 12.6388545,18.4931868 11.9998503,18.4931868 C11.3608461,18.4931868 10.8428308,17.9751716 10.8428308,17.3361674 C10.8428308,16.6971631 11.3608461,16.1791479 11.9998503,16.1791479 Z M11.9998503,8.08001153 C12.6388545,8.08001153 13.1568698,8.5980268 13.1568698,9.23703101 L13.1568698,13.8651089 C13.1568698,14.5041131 12.6388545,15.0221284 11.9998503,15.0221284 C11.3608461,15.0221284 10.8428308,14.5041131 10.8428308,13.8651089 L10.8428308,9.23703101 C10.8428308,8.5980268 11.3608461,8.08001153 11.9998503,8.08001153 Z" id="path-1"></path>
    </defs>
    <g id="Alert" stroke="none" stroke-width="1" fill="none" fill-rule="evenodd">
        <mask id="mask-2" fill="white">
            <use xlink:href="#path-1"></use>
        </mask>
        <use id="Mask" fill="red" fill-rule="nonzero" xlink:href="#path-1"></use>
    </g>
</svg>