<?xml version="1.0" encoding="UTF-8"?>
<svg width="22px" height="23px" viewBox="0 0 22 23" version="1.1" xmlns="http://www.w3.org/2000/svg" xmlns:xlink="http://www.w3.org/1999/xlink">
    <!-- Generator: Sketch 48.2 (47327) - http://www.bohemiancoding.com/sketch -->
    <title>Icon_Tmla_AV</title>
    <desc>Created with Sketch.</desc>
    <defs></defs>
    <g id="Page-1" stroke="none" stroke-width="1" fill="none" fill-rule="evenodd">
        <g id="Icon_Tmla_AV" fill-rule="nonzero">
            <path d="M11.8704199,1.53696926 L9.81333333,0.23 L9.81333333,23 C12.0654025,21.9202142 13.7268918,20.9448746 14.7978013,20.0739811 C14.7978013,20.0739811 18.4684982,16.9635095 19.09,11.6835385 C19.8978887,6.70217435 19.2520661,4.164138 18.7145251,3.64788535 C18.7145251,3.64788535 15.2777314,3.63706692 11.8704199,1.53696926 Z" id="Shape" fill="#DBF3FE"></path>
            <path d="M2.28708596,1.53696926 L0.229999346,0.23 L0.229999346,23 C2.48206847,21.9202142 4.1435578,20.9448746 5.21446734,20.0739811 C5.21446734,20.0739811 8.88516424,16.9635095 9.50666602,11.6835385 C10.3145547,6.70217435 9.66873214,4.164138 9.13119108,3.64788535 C9.13119108,3.64788535 5.69439737,3.63706692 2.28708596,1.53696926 Z" id="Shape-Copy" fill="#E6F5FC" transform="translate(5.058979, 11.615000) scale(-1, 1) translate(-5.058979, -11.615000) "></path>
            <path d="M12.3964456,18.0480845 C12.3964456,15.7906641 14.23251,13.9545996 16.4899305,13.9545996 C18.747351,13.9545996 20.5834154,15.7906641 20.5834154,18.0480845 C20.5834154,20.305505 18.747351,22.1415695 16.4899305,22.1415695 C14.23251,22.1415695 12.3964456,20.305505 12.3964456,18.0480845 Z M10.1346587,22.4297508 C10.0022118,22.4617709 9.87485891,22.4610432 9.74532285,22.4297508 C7.72077618,21.923978 5.64965475,20.4808881 3.88490792,18.3537314 L17.0269957,10.3283178 C17.1114125,10.2759212 17.1579873,10.1864103 17.1579873,10.0947163 C17.1579873,10.0459583 17.1448881,9.99720035 17.1179621,9.95280878 C17.0400949,9.82400045 16.8719891,9.78397527 16.7431808,9.86184245 L3.53996359,17.9243703 C2.80786655,16.9819591 2.19220642,15.9856959 1.75120165,15.0309133 C0.0388514268,11.3216701 0.575916647,6.60233686 0.833533298,4.33545588 C0.877924867,3.95485275 1.18648266,3.65793865 1.56708579,3.62810169 C5.28578942,3.33700943 7.45660995,1.95141027 8.75342597,1.12398052 L8.81237216,1.08613853 C9.1172913,0.893289903 9.35817014,0.739738736 9.58303892,0.629123677 C9.80645223,0.517053156 10.0742571,0.517053156 10.2976704,0.629123677 C10.5305442,0.745560581 10.774334,0.899839479 11.1251002,1.12325279 C12.4248271,1.95141027 14.600014,3.33700943 18.3158067,3.62810169 C18.5697847,3.64775042 18.793198,3.78456378 18.925645,3.99342248 L3.78884747,13.1737446 C3.70443072,13.2246858 3.65712822,13.3149244 3.65712822,13.4066184 C3.65712822,13.4553764 3.67022738,13.5041344 3.69715341,13.5477982 C3.77502059,13.6766065 3.94312637,13.7180872 4.07266243,13.64022 L19.0719189,4.54213139 C19.3084313,6.64308978 19.6941286,10.5284437 18.5668738,13.9065694 C17.9410254,13.5907343 17.2373099,13.4088016 16.4899305,13.4088016 C13.9319573,13.4088016 11.8506476,15.4901113 11.8506476,18.0480845 C11.8506476,19.2182754 12.2901969,20.2851286 13.0070116,21.1023701 C12.1060811,21.7071143 11.1396548,22.1786837 10.1346587,22.4297508 Z M19.5900631,4.27068785 C19.5791471,4.18336018 19.5609539,4.09821569 19.5340278,4.01670986 C19.3666498,3.49274379 18.9052686,3.12596754 18.3580151,3.08448689 C14.778308,2.80358286 12.6751665,1.46383073 11.4154647,0.661143825 C11.0545103,0.430453209 10.7983491,0.268897004 10.5421879,0.141544141 C10.1659512,-0.0469380981 9.71548589,-0.0469380981 9.34070461,0.140088679 C9.09036526,0.263075159 8.83857046,0.423175902 8.51982443,0.626212754 L8.46087825,0.663327017 C7.20627061,1.46383073 5.10603995,2.80358286 1.52560515,3.08448689 C0.884474443,3.13397258 0.365602489,3.6331958 0.291373963,4.27287105 C0.027935467,6.59069317 -0.521501175,11.4119087 1.25561708,15.258693 C1.74392434,16.3175411 2.43745165,17.4222362 3.26269821,18.4541582 C5.14242648,20.8061837 7.3983915,22.4064634 9.61505906,22.9595387 C9.7227632,22.985737 9.83337826,22.9995639 9.94035467,22.9995639 C10.0473311,22.9995639 10.1572184,22.985737 10.2656503,22.958811 C11.3652513,22.6844565 12.4182775,22.1641291 13.3956198,21.4946169 C14.2179554,22.2339912 15.3000909,22.6873674 16.4899305,22.6873674 C19.0486315,22.6873674 21.1292134,20.6067855 21.1292134,18.0480845 C21.1292134,16.4354334 20.3010559,15.0141755 19.0493592,14.1816516 C20.2966896,10.5510034 19.8294865,6.37965128 19.5900631,4.27068785 Z" id="Page-1-Copy" fill="#009FDB"></path>
            <g id="Group-2" transform="translate(12.121622, 13.675676)">
                <path d="M4.35135135,0 C6.75452964,0 8.7027027,1.94817306 8.7027027,4.35135135 C8.7027027,6.75452964 6.75452964,8.7027027 4.35135135,8.7027027 C1.94817306,8.7027027 0,6.75452964 0,4.35135135 C-4.93871548e-15,1.94817306 1.94825994,0 4.35135135,0 Z" id="Shape" fill="#FFFFFF"></path>
                <path d="M1.88550987,7.63660768 C2.58056664,8.17477972 3.45272922,8.49805994 4.39909288,8.49805994 C5.43456638,8.49805994 6.3787023,8.11360238 7.09946383,7.48195069 C7.10803208,7.47441063 7.10383364,7.46901263 7.09526539,7.47441063 C6.77189948,7.69033063 5.85021239,8.16192733 4.39909288,8.16192733 C3.13793157,8.16192733 2.34099826,7.88046019 1.89082219,7.62906761 C1.88225393,7.62478349 1.87908368,7.63129536 1.88550987,7.63660768 M4.67721841,7.84610149 C5.68595896,7.84610149 6.79443399,7.57106053 7.45718844,7.02646231 C7.63874974,6.87823151 7.81174279,6.68056189 7.96631409,6.41528874 C8.05550962,6.26268814 8.14256308,6.0812982 8.21342254,5.90299283 C8.21667848,5.89442458 8.21128048,5.89005477 8.20485429,5.89965121 C7.58819704,6.80745773 5.80300131,7.37339091 3.9597985,7.37339091 C2.65673842,7.37339091 1.25497205,6.95663104 0.706089699,6.16072592 C0.700691699,6.15318585 0.695293699,6.15635611 0.698549635,6.16501004 C1.20990304,7.25215012 2.76092839,7.84610149 4.67721841,7.84610149 M3.57516957,6.04256969 C1.47731825,6.04256969 0.488027633,5.06510327 0.308608393,4.39806469 C0.30646633,4.38838256 0.300040139,4.39052463 0.300040139,4.39909288 C0.300040139,4.62358114 0.322488965,4.91353086 0.361217473,5.10588816 C0.379467854,5.19928213 0.455810998,5.34657042 0.567455348,5.46361277 C1.0756385,5.99321655 2.34211213,6.73539872 4.5354138,6.73539872 C7.52384945,6.73539872 8.20699635,5.73968191 8.34657321,5.41203188 C8.44656473,5.17777581 8.49805994,4.75458974 8.49805994,4.39909288 C8.49805994,4.31315329 8.49591788,4.24435021 8.49266194,4.17674669 C8.49266194,4.16603637 8.48623575,4.1649225 8.48417937,4.1757185 C8.33474902,4.97693594 5.78158067,6.04256969 3.57516957,6.04256969 M0.695293699,2.64071578 C0.575081094,2.87917029 0.441844744,3.28196392 0.402002362,3.49034386 C0.384780172,3.5794537 0.392405918,3.62246633 0.423594363,3.68895598 C0.674901254,4.22292958 1.9466872,5.07684178 4.91353086,5.07684178 C6.72357453,5.07684178 8.12962502,4.63214939 8.35736921,3.82013595 C8.39918229,3.67079129 8.40132435,3.51296405 8.34768708,3.3002143 C8.28762362,3.06278798 8.17469403,2.78569064 8.07924368,2.59127696 C8.07581638,2.58485077 8.07050406,2.58587896 8.07161794,2.59341902 C8.10709051,3.65776754 5.13921867,4.34417037 3.64174491,4.34417037 C2.01977441,4.34417037 0.666247318,3.69760992 0.666247318,2.88131236 C0.666247318,2.80291283 0.682441318,2.72442763 0.702833763,2.64277216 C0.704975826,2.63531778 0.698549635,2.63420391 0.695293699,2.64071578 M7.10589002,1.33345726 C7.12319789,1.3602759 7.13176615,1.38932228 7.13176615,1.42805079 C7.13176615,1.88336781 5.73856804,2.68904074 3.52041843,2.68904074 C1.89082219,2.68904074 1.58570666,2.08420768 1.58570666,1.69966444 C1.58570666,1.56222964 1.63840142,1.42145323 1.75450127,1.27862044 C1.76084177,1.2699665 1.75544377,1.26679624 1.74807508,1.27322244 C1.5364392,1.45264168 1.34202552,1.65459542 1.17117453,1.87265749 C1.08951907,1.97573359 1.03896637,2.06707117 1.03896637,2.12182232 C1.03896637,2.91884131 3.03699753,3.49677005 4.9049626,3.49677005 C6.8954537,3.49677005 7.78381028,2.84695366 7.78381028,2.2755368 C7.78381028,2.0713553 7.7042112,1.9520852 7.50131495,1.72125644 C7.36910679,1.5707979 7.24443869,1.44844323 7.11240189,1.32797358 C7.10589002,1.32266126 7.10169158,1.32703107 7.10589002,1.33345726 M6.49583033,0.877968875 C5.88140083,0.509533951 5.16809368,0.300040139 4.39909288,0.300040139 C3.62452271,0.300040139 2.88988061,0.517074014 2.27330905,0.895191066 C2.08857749,1.00906316 1.98438752,1.10040075 1.98438752,1.2174431 C1.98438752,1.56325784 2.79211683,1.9349487 4.22498596,1.9349487 C5.64294632,1.9349487 6.74293878,1.52778526 6.74293878,1.13570196 C6.74293878,1.04230799 6.66119764,0.976760845 6.49583033,0.877968875" id="att-globe" fill="#009FDB"></path>
            </g>
        </g>
    </g>
</svg>